<mxfile host="Electron" modified="2023-07-06T17:27:26.642Z" agent="Mozilla/5.0 (Windows NT 10.0; Win64; x64) AppleWebKit/537.36 (KHTML, like Gecko) draw.io/21.5.0 Chrome/112.0.5615.204 Electron/24.5.1 Safari/537.36" etag="h-FV-ldYL8sKdxu85gqC" version="21.5.0" type="device">
  <diagram name="ページ1" id="IIDgFnZKYe8acDqtVgp-">
    <mxGraphModel dx="2053" dy="1906" grid="1" gridSize="10" guides="1" tooltips="1" connect="1" arrows="1" fold="1" page="1" pageScale="1" pageWidth="827" pageHeight="1169" math="0" shadow="0">
      <root>
        <mxCell id="0" />
        <mxCell id="1" parent="0" />
        <mxCell id="cDj7tId7pjKgxeBCBrE4-2" value="&lt;b&gt;&lt;font style=&quot;font-size: 22px;&quot;&gt;Machine Translation&lt;/font&gt;&lt;/b&gt;" style="rounded=0;whiteSpace=wrap;html=1;fontSize=16;fillColor=#d5e8d4;strokeColor=#82b366;" parent="1" vertex="1">
          <mxGeometry x="500" y="45" width="290" height="100" as="geometry" />
        </mxCell>
        <mxCell id="cDj7tId7pjKgxeBCBrE4-9" value="" style="edgeStyle=none;curved=1;rounded=0;orthogonalLoop=1;jettySize=auto;html=1;fontSize=12;startSize=8;endSize=8;" parent="1" source="cDj7tId7pjKgxeBCBrE4-4" target="cDj7tId7pjKgxeBCBrE4-2" edge="1">
          <mxGeometry relative="1" as="geometry" />
        </mxCell>
        <mxCell id="cDj7tId7pjKgxeBCBrE4-4" value="Encoder-Decoder Architecture" style="rounded=0;whiteSpace=wrap;html=1;fontSize=16;fillColor=#f8cecc;strokeColor=#b85450;" parent="1" vertex="1">
          <mxGeometry x="570" y="390" width="150" height="60" as="geometry" />
        </mxCell>
        <mxCell id="cDj7tId7pjKgxeBCBrE4-85" style="edgeStyle=none;curved=1;rounded=0;orthogonalLoop=1;jettySize=auto;html=1;exitX=0.5;exitY=0;exitDx=0;exitDy=0;fontSize=12;startSize=8;endSize=8;" parent="1" source="cDj7tId7pjKgxeBCBrE4-8" target="cDj7tId7pjKgxeBCBrE4-82" edge="1">
          <mxGeometry relative="1" as="geometry" />
        </mxCell>
        <mxCell id="cDj7tId7pjKgxeBCBrE4-8" value="Training" style="rounded=0;whiteSpace=wrap;html=1;fontSize=16;fillColor=#ffe6cc;strokeColor=#d79b00;" parent="1" vertex="1">
          <mxGeometry x="145" y="555" width="120" height="60" as="geometry" />
        </mxCell>
        <mxCell id="cDj7tId7pjKgxeBCBrE4-12" value="" style="edgeStyle=none;curved=1;rounded=0;orthogonalLoop=1;jettySize=auto;html=1;fontSize=12;startSize=8;endSize=8;" parent="1" source="cDj7tId7pjKgxeBCBrE4-11" target="cDj7tId7pjKgxeBCBrE4-8" edge="1">
          <mxGeometry relative="1" as="geometry" />
        </mxCell>
        <mxCell id="cDj7tId7pjKgxeBCBrE4-11" value="Data" style="rounded=0;whiteSpace=wrap;html=1;fontSize=16;fillColor=#ffe6cc;strokeColor=#d79b00;" parent="1" vertex="1">
          <mxGeometry x="145" y="680" width="120" height="60" as="geometry" />
        </mxCell>
        <mxCell id="cDj7tId7pjKgxeBCBrE4-21" style="edgeStyle=none;curved=1;rounded=0;orthogonalLoop=1;jettySize=auto;html=1;fontSize=12;startSize=8;endSize=8;" parent="1" source="cDj7tId7pjKgxeBCBrE4-14" target="cDj7tId7pjKgxeBCBrE4-18" edge="1">
          <mxGeometry relative="1" as="geometry">
            <Array as="points">
              <mxPoint x="50" y="760" />
            </Array>
          </mxGeometry>
        </mxCell>
        <mxCell id="cDj7tId7pjKgxeBCBrE4-14" value="Parallel Corpus" style="rounded=0;whiteSpace=wrap;html=1;fontSize=16;fillColor=#e1d5e7;strokeColor=#9673a6;" parent="1" vertex="1">
          <mxGeometry y="820" width="120" height="60" as="geometry" />
        </mxCell>
        <mxCell id="cDj7tId7pjKgxeBCBrE4-24" style="edgeStyle=none;curved=1;rounded=0;orthogonalLoop=1;jettySize=auto;html=1;entryX=0.5;entryY=1;entryDx=0;entryDy=0;fontSize=12;startSize=8;endSize=8;" parent="1" source="cDj7tId7pjKgxeBCBrE4-15" target="cDj7tId7pjKgxeBCBrE4-18" edge="1">
          <mxGeometry relative="1" as="geometry" />
        </mxCell>
        <mxCell id="cDj7tId7pjKgxeBCBrE4-15" value="Tokenized segments" style="rounded=0;whiteSpace=wrap;html=1;fontSize=16;fillColor=#e1d5e7;strokeColor=#9673a6;" parent="1" vertex="1">
          <mxGeometry x="140" y="820" width="120" height="60" as="geometry" />
        </mxCell>
        <mxCell id="cDj7tId7pjKgxeBCBrE4-22" style="edgeStyle=none;curved=1;rounded=0;orthogonalLoop=1;jettySize=auto;html=1;entryX=1;entryY=0.5;entryDx=0;entryDy=0;fontSize=12;startSize=8;endSize=8;" parent="1" source="cDj7tId7pjKgxeBCBrE4-16" target="cDj7tId7pjKgxeBCBrE4-18" edge="1">
          <mxGeometry relative="1" as="geometry">
            <Array as="points">
              <mxPoint x="330" y="760" />
            </Array>
          </mxGeometry>
        </mxCell>
        <mxCell id="cDj7tId7pjKgxeBCBrE4-16" value="Aligned Sentences" style="rounded=0;whiteSpace=wrap;html=1;fontSize=16;fillColor=#e1d5e7;strokeColor=#9673a6;" parent="1" vertex="1">
          <mxGeometry x="340" y="820" width="120" height="60" as="geometry" />
        </mxCell>
        <mxCell id="cDj7tId7pjKgxeBCBrE4-25" value="" style="edgeStyle=none;curved=1;rounded=0;orthogonalLoop=1;jettySize=auto;html=1;fontSize=12;startSize=8;endSize=8;" parent="1" source="cDj7tId7pjKgxeBCBrE4-18" target="cDj7tId7pjKgxeBCBrE4-11" edge="1">
          <mxGeometry relative="1" as="geometry" />
        </mxCell>
        <mxCell id="cDj7tId7pjKgxeBCBrE4-18" value="" style="ellipse;whiteSpace=wrap;html=1;aspect=fixed;fontSize=16;" parent="1" vertex="1">
          <mxGeometry x="190" y="760" width="20" height="20" as="geometry" />
        </mxCell>
        <mxCell id="cDj7tId7pjKgxeBCBrE4-35" value="" style="edgeStyle=none;curved=1;rounded=0;orthogonalLoop=1;jettySize=auto;html=1;fontSize=12;startSize=8;endSize=8;" parent="1" source="cDj7tId7pjKgxeBCBrE4-30" target="cDj7tId7pjKgxeBCBrE4-14" edge="1">
          <mxGeometry relative="1" as="geometry" />
        </mxCell>
        <mxCell id="cDj7tId7pjKgxeBCBrE4-30" value="Building Corpus" style="ellipse;whiteSpace=wrap;html=1;aspect=fixed;fontSize=16;fillColor=#d5e8d4;strokeColor=#82b366;" parent="1" vertex="1">
          <mxGeometry x="20" y="950" width="80" height="80" as="geometry" />
        </mxCell>
        <mxCell id="cDj7tId7pjKgxeBCBrE4-36" value="" style="edgeStyle=none;curved=1;rounded=0;orthogonalLoop=1;jettySize=auto;html=1;fontSize=12;startSize=8;endSize=8;" parent="1" source="cDj7tId7pjKgxeBCBrE4-31" target="cDj7tId7pjKgxeBCBrE4-15" edge="1">
          <mxGeometry relative="1" as="geometry" />
        </mxCell>
        <mxCell id="cDj7tId7pjKgxeBCBrE4-31" value="Tokenization Algorithm" style="ellipse;whiteSpace=wrap;html=1;aspect=fixed;fontSize=16;fillColor=#d5e8d4;strokeColor=#82b366;" parent="1" vertex="1">
          <mxGeometry x="150" y="950" width="100" height="100" as="geometry" />
        </mxCell>
        <mxCell id="cDj7tId7pjKgxeBCBrE4-42" style="edgeStyle=none;curved=1;rounded=0;orthogonalLoop=1;jettySize=auto;html=1;entryX=0;entryY=0.5;entryDx=0;entryDy=0;fontSize=12;startSize=8;endSize=8;" parent="1" source="cDj7tId7pjKgxeBCBrE4-32" target="cDj7tId7pjKgxeBCBrE4-38" edge="1">
          <mxGeometry relative="1" as="geometry">
            <Array as="points">
              <mxPoint x="330" y="940" />
            </Array>
          </mxGeometry>
        </mxCell>
        <mxCell id="cDj7tId7pjKgxeBCBrE4-32" value="Scoring" style="ellipse;whiteSpace=wrap;html=1;aspect=fixed;fontSize=16;fillColor=#d5e8d4;strokeColor=#82b366;" parent="1" vertex="1">
          <mxGeometry x="270" y="970" width="80" height="80" as="geometry" />
        </mxCell>
        <mxCell id="cDj7tId7pjKgxeBCBrE4-40" value="" style="edgeStyle=none;curved=1;rounded=0;orthogonalLoop=1;jettySize=auto;html=1;fontSize=12;startSize=8;endSize=8;" parent="1" source="cDj7tId7pjKgxeBCBrE4-33" target="cDj7tId7pjKgxeBCBrE4-38" edge="1">
          <mxGeometry relative="1" as="geometry" />
        </mxCell>
        <mxCell id="cDj7tId7pjKgxeBCBrE4-33" value="Alignment Algorithm" style="ellipse;whiteSpace=wrap;html=1;aspect=fixed;fontSize=16;fillColor=#d5e8d4;strokeColor=#82b366;" parent="1" vertex="1">
          <mxGeometry x="360" y="970" width="80" height="80" as="geometry" />
        </mxCell>
        <mxCell id="cDj7tId7pjKgxeBCBrE4-41" style="edgeStyle=none;curved=1;rounded=0;orthogonalLoop=1;jettySize=auto;html=1;entryX=1;entryY=0.5;entryDx=0;entryDy=0;fontSize=12;startSize=8;endSize=8;" parent="1" source="cDj7tId7pjKgxeBCBrE4-34" target="cDj7tId7pjKgxeBCBrE4-38" edge="1">
          <mxGeometry relative="1" as="geometry">
            <Array as="points">
              <mxPoint x="480" y="930" />
            </Array>
          </mxGeometry>
        </mxCell>
        <mxCell id="cDj7tId7pjKgxeBCBrE4-34" value="Corpus Cleanup" style="ellipse;whiteSpace=wrap;html=1;aspect=fixed;fontSize=16;fillColor=#d5e8d4;strokeColor=#82b366;" parent="1" vertex="1">
          <mxGeometry x="450" y="970" width="80" height="80" as="geometry" />
        </mxCell>
        <mxCell id="cDj7tId7pjKgxeBCBrE4-39" value="" style="edgeStyle=none;curved=1;rounded=0;orthogonalLoop=1;jettySize=auto;html=1;fontSize=12;startSize=8;endSize=8;" parent="1" source="cDj7tId7pjKgxeBCBrE4-38" target="cDj7tId7pjKgxeBCBrE4-16" edge="1">
          <mxGeometry relative="1" as="geometry" />
        </mxCell>
        <mxCell id="cDj7tId7pjKgxeBCBrE4-38" value="" style="ellipse;whiteSpace=wrap;html=1;aspect=fixed;fontSize=16;" parent="1" vertex="1">
          <mxGeometry x="385" y="910" width="30" height="30" as="geometry" />
        </mxCell>
        <mxCell id="cDj7tId7pjKgxeBCBrE4-43" value="" style="swimlane;startSize=0;fontSize=16;fillColor=#e1d5e7;strokeColor=#9673a6;" parent="1" vertex="1">
          <mxGeometry x="-10" y="800" width="560" height="300" as="geometry" />
        </mxCell>
        <mxCell id="cDj7tId7pjKgxeBCBrE4-45" value="&lt;b&gt;General Method&lt;/b&gt;" style="text;html=1;align=center;verticalAlign=middle;resizable=0;points=[];autosize=1;strokeColor=none;fillColor=none;fontSize=16;" parent="cDj7tId7pjKgxeBCBrE4-43" vertex="1">
          <mxGeometry x="190" y="260" width="140" height="30" as="geometry" />
        </mxCell>
        <mxCell id="cDj7tId7pjKgxeBCBrE4-47" value="" style="edgeStyle=none;curved=1;rounded=0;orthogonalLoop=1;jettySize=auto;html=1;fontSize=12;startSize=8;endSize=8;" parent="1" edge="1">
          <mxGeometry relative="1" as="geometry">
            <mxPoint x="250" y="1150" as="sourcePoint" />
            <mxPoint x="250" y="1100" as="targetPoint" />
          </mxGeometry>
        </mxCell>
        <mxCell id="cDj7tId7pjKgxeBCBrE4-51" value="" style="swimlane;startSize=0;fontSize=16;fillColor=#dae8fc;strokeColor=#6c8ebf;" parent="1" vertex="1">
          <mxGeometry x="-30" y="790" width="600" height="530" as="geometry" />
        </mxCell>
        <mxCell id="cDj7tId7pjKgxeBCBrE4-53" value="&lt;b&gt;Low-resource situations&lt;/b&gt;" style="text;html=1;align=center;verticalAlign=middle;resizable=0;points=[];autosize=1;strokeColor=none;fillColor=none;fontSize=16;" parent="cDj7tId7pjKgxeBCBrE4-51" vertex="1">
          <mxGeometry x="175" y="489" width="210" height="30" as="geometry" />
        </mxCell>
        <mxCell id="cDj7tId7pjKgxeBCBrE4-46" value="Data Augmentation" style="rounded=0;whiteSpace=wrap;html=1;fontSize=16;fillColor=#ffe6cc;strokeColor=#d79b00;" parent="cDj7tId7pjKgxeBCBrE4-51" vertex="1">
          <mxGeometry x="210" y="360" width="140" height="60" as="geometry" />
        </mxCell>
        <mxCell id="cDj7tId7pjKgxeBCBrE4-49" value="&lt;font style=&quot;font-size: 13px;&quot;&gt;- Backtranslation&lt;br&gt;- Multilingual Model&lt;/font&gt;" style="text;html=1;strokeColor=none;fillColor=none;align=left;verticalAlign=middle;whiteSpace=wrap;rounded=0;fontSize=16;" parent="cDj7tId7pjKgxeBCBrE4-51" vertex="1">
          <mxGeometry x="210" y="430" width="210" height="30" as="geometry" />
        </mxCell>
        <mxCell id="cDj7tId7pjKgxeBCBrE4-76" style="edgeStyle=none;curved=1;rounded=0;orthogonalLoop=1;jettySize=auto;html=1;entryX=0.5;entryY=0;entryDx=0;entryDy=0;fontSize=12;startSize=8;endSize=8;" parent="1" source="cDj7tId7pjKgxeBCBrE4-54" target="cDj7tId7pjKgxeBCBrE4-69" edge="1">
          <mxGeometry relative="1" as="geometry">
            <Array as="points">
              <mxPoint x="310" y="350" />
            </Array>
          </mxGeometry>
        </mxCell>
        <mxCell id="cDj7tId7pjKgxeBCBrE4-78" style="edgeStyle=none;curved=1;rounded=0;orthogonalLoop=1;jettySize=auto;html=1;exitX=1;exitY=0.75;exitDx=0;exitDy=0;entryX=0;entryY=0.5;entryDx=0;entryDy=0;fontSize=12;startSize=8;endSize=8;" parent="1" source="cDj7tId7pjKgxeBCBrE4-54" target="cDj7tId7pjKgxeBCBrE4-70" edge="1">
          <mxGeometry relative="1" as="geometry" />
        </mxCell>
        <mxCell id="cDj7tId7pjKgxeBCBrE4-54" value="Feedforward" style="rounded=0;whiteSpace=wrap;html=1;fontSize=16;fillColor=#e1d5e7;strokeColor=#9673a6;" parent="1" vertex="1">
          <mxGeometry x="150" y="320" width="110" height="40" as="geometry" />
        </mxCell>
        <mxCell id="cDj7tId7pjKgxeBCBrE4-77" style="edgeStyle=none;curved=1;rounded=0;orthogonalLoop=1;jettySize=auto;html=1;exitX=1;exitY=0.5;exitDx=0;exitDy=0;entryX=0;entryY=0;entryDx=0;entryDy=0;fontSize=12;startSize=8;endSize=8;" parent="1" source="cDj7tId7pjKgxeBCBrE4-55" target="cDj7tId7pjKgxeBCBrE4-69" edge="1">
          <mxGeometry relative="1" as="geometry" />
        </mxCell>
        <mxCell id="cDj7tId7pjKgxeBCBrE4-79" style="edgeStyle=none;curved=1;rounded=0;orthogonalLoop=1;jettySize=auto;html=1;exitX=1;exitY=0.75;exitDx=0;exitDy=0;fontSize=12;startSize=8;endSize=8;" parent="1" source="cDj7tId7pjKgxeBCBrE4-55" edge="1">
          <mxGeometry relative="1" as="geometry">
            <mxPoint x="300" y="440" as="targetPoint" />
          </mxGeometry>
        </mxCell>
        <mxCell id="cDj7tId7pjKgxeBCBrE4-55" value="Self-attention" style="rounded=0;whiteSpace=wrap;html=1;fontSize=16;fillColor=#e1d5e7;strokeColor=#9673a6;" parent="1" vertex="1">
          <mxGeometry x="150" y="375" width="110" height="40" as="geometry" />
        </mxCell>
        <mxCell id="cDj7tId7pjKgxeBCBrE4-59" style="edgeStyle=none;curved=1;rounded=0;orthogonalLoop=1;jettySize=auto;html=1;exitX=1;exitY=0.5;exitDx=0;exitDy=0;entryX=0.5;entryY=0;entryDx=0;entryDy=0;fontSize=12;startSize=8;endSize=8;" parent="1" source="cDj7tId7pjKgxeBCBrE4-56" target="cDj7tId7pjKgxeBCBrE4-58" edge="1">
          <mxGeometry relative="1" as="geometry">
            <Array as="points">
              <mxPoint x="470" y="380" />
            </Array>
          </mxGeometry>
        </mxCell>
        <mxCell id="cDj7tId7pjKgxeBCBrE4-56" value="Encoder" style="rounded=0;whiteSpace=wrap;html=1;fontSize=16;fillColor=#f5f5f5;fontColor=#333333;strokeColor=#666666;" parent="1" vertex="1">
          <mxGeometry x="360" y="390" width="90" height="30" as="geometry" />
        </mxCell>
        <mxCell id="cDj7tId7pjKgxeBCBrE4-60" style="edgeStyle=none;curved=1;rounded=0;orthogonalLoop=1;jettySize=auto;html=1;exitX=1;exitY=0.25;exitDx=0;exitDy=0;entryX=0.5;entryY=1;entryDx=0;entryDy=0;fontSize=12;startSize=8;endSize=8;" parent="1" source="cDj7tId7pjKgxeBCBrE4-57" target="cDj7tId7pjKgxeBCBrE4-58" edge="1">
          <mxGeometry relative="1" as="geometry">
            <Array as="points">
              <mxPoint x="490" y="460" />
            </Array>
          </mxGeometry>
        </mxCell>
        <mxCell id="cDj7tId7pjKgxeBCBrE4-57" value="Decoder" style="rounded=0;whiteSpace=wrap;html=1;fontSize=16;fillColor=#f5f5f5;fontColor=#333333;strokeColor=#666666;" parent="1" vertex="1">
          <mxGeometry x="360" y="430" width="90" height="30" as="geometry" />
        </mxCell>
        <mxCell id="cDj7tId7pjKgxeBCBrE4-61" value="" style="edgeStyle=none;curved=1;rounded=0;orthogonalLoop=1;jettySize=auto;html=1;fontSize=12;startSize=8;endSize=8;" parent="1" source="cDj7tId7pjKgxeBCBrE4-58" target="cDj7tId7pjKgxeBCBrE4-4" edge="1">
          <mxGeometry relative="1" as="geometry" />
        </mxCell>
        <mxCell id="cDj7tId7pjKgxeBCBrE4-58" value="" style="ellipse;whiteSpace=wrap;html=1;aspect=fixed;fontSize=16;" parent="1" vertex="1">
          <mxGeometry x="480" y="410" width="20" height="20" as="geometry" />
        </mxCell>
        <mxCell id="cDj7tId7pjKgxeBCBrE4-80" style="edgeStyle=none;curved=1;rounded=0;orthogonalLoop=1;jettySize=auto;html=1;exitX=1;exitY=0.5;exitDx=0;exitDy=0;fontSize=12;startSize=8;endSize=8;" parent="1" source="cDj7tId7pjKgxeBCBrE4-63" edge="1">
          <mxGeometry relative="1" as="geometry">
            <mxPoint x="300" y="440" as="targetPoint" />
          </mxGeometry>
        </mxCell>
        <mxCell id="cDj7tId7pjKgxeBCBrE4-63" value="Cross-attention" style="rounded=0;whiteSpace=wrap;html=1;fontSize=16;fillColor=#e1d5e7;strokeColor=#9673a6;" parent="1" vertex="1">
          <mxGeometry x="150" y="430" width="110" height="40" as="geometry" />
        </mxCell>
        <mxCell id="cDj7tId7pjKgxeBCBrE4-74" style="edgeStyle=none;curved=1;rounded=0;orthogonalLoop=1;jettySize=auto;html=1;exitX=1;exitY=0.5;exitDx=0;exitDy=0;entryX=0;entryY=0.5;entryDx=0;entryDy=0;fontSize=12;startSize=8;endSize=8;" parent="1" source="cDj7tId7pjKgxeBCBrE4-69" target="cDj7tId7pjKgxeBCBrE4-56" edge="1">
          <mxGeometry relative="1" as="geometry" />
        </mxCell>
        <mxCell id="cDj7tId7pjKgxeBCBrE4-69" value="" style="ellipse;whiteSpace=wrap;html=1;aspect=fixed;fontSize=16;" parent="1" vertex="1">
          <mxGeometry x="300" y="395" width="20" height="20" as="geometry" />
        </mxCell>
        <mxCell id="cDj7tId7pjKgxeBCBrE4-75" value="" style="edgeStyle=none;curved=1;rounded=0;orthogonalLoop=1;jettySize=auto;html=1;fontSize=12;startSize=8;endSize=8;" parent="1" source="cDj7tId7pjKgxeBCBrE4-70" target="cDj7tId7pjKgxeBCBrE4-57" edge="1">
          <mxGeometry relative="1" as="geometry" />
        </mxCell>
        <mxCell id="cDj7tId7pjKgxeBCBrE4-70" value="" style="ellipse;whiteSpace=wrap;html=1;aspect=fixed;fontSize=16;" parent="1" vertex="1">
          <mxGeometry x="300" y="435" width="20" height="20" as="geometry" />
        </mxCell>
        <mxCell id="cDj7tId7pjKgxeBCBrE4-71" style="edgeStyle=none;curved=1;rounded=0;orthogonalLoop=1;jettySize=auto;html=1;exitX=0;exitY=0.5;exitDx=0;exitDy=0;fontSize=12;startSize=8;endSize=8;" parent="1" source="cDj7tId7pjKgxeBCBrE4-69" target="cDj7tId7pjKgxeBCBrE4-69" edge="1">
          <mxGeometry relative="1" as="geometry" />
        </mxCell>
        <mxCell id="cDj7tId7pjKgxeBCBrE4-81" value="" style="swimlane;startSize=0;fontSize=16;" parent="1" vertex="1">
          <mxGeometry x="130" y="300" width="150" height="220" as="geometry" />
        </mxCell>
        <mxCell id="cDj7tId7pjKgxeBCBrE4-82" value="&lt;b&gt;Layers&lt;/b&gt;" style="text;html=1;align=center;verticalAlign=middle;resizable=0;points=[];autosize=1;strokeColor=none;fillColor=none;fontSize=16;" parent="cDj7tId7pjKgxeBCBrE4-81" vertex="1">
          <mxGeometry x="35" y="190" width="80" height="30" as="geometry" />
        </mxCell>
        <mxCell id="cDj7tId7pjKgxeBCBrE4-86" style="edgeStyle=none;curved=1;rounded=0;orthogonalLoop=1;jettySize=auto;html=1;exitX=1;exitY=1;exitDx=0;exitDy=0;fontSize=12;startSize=8;endSize=8;" parent="1" source="cDj7tId7pjKgxeBCBrE4-81" target="cDj7tId7pjKgxeBCBrE4-81" edge="1">
          <mxGeometry relative="1" as="geometry" />
        </mxCell>
        <mxCell id="cDj7tId7pjKgxeBCBrE4-88" value="" style="edgeStyle=none;curved=1;rounded=0;orthogonalLoop=1;jettySize=auto;html=1;fontSize=12;startSize=8;endSize=8;" parent="1" source="cDj7tId7pjKgxeBCBrE4-87" target="cDj7tId7pjKgxeBCBrE4-2" edge="1">
          <mxGeometry relative="1" as="geometry" />
        </mxCell>
        <mxCell id="cDj7tId7pjKgxeBCBrE4-87" value="Machine Translation System" style="rounded=0;whiteSpace=wrap;html=1;fontSize=16;fillColor=#f8cecc;strokeColor=#b85450;" parent="1" vertex="1">
          <mxGeometry x="320" y="65" width="120" height="60" as="geometry" />
        </mxCell>
        <mxCell id="cDj7tId7pjKgxeBCBrE4-101" style="edgeStyle=none;curved=1;rounded=0;orthogonalLoop=1;jettySize=auto;html=1;entryX=0;entryY=0.5;entryDx=0;entryDy=0;fontSize=12;startSize=8;endSize=8;" parent="1" source="cDj7tId7pjKgxeBCBrE4-120" target="cDj7tId7pjKgxeBCBrE4-98" edge="1">
          <mxGeometry relative="1" as="geometry">
            <mxPoint x="235" y="95" as="sourcePoint" />
          </mxGeometry>
        </mxCell>
        <mxCell id="cDj7tId7pjKgxeBCBrE4-118" style="edgeStyle=none;curved=1;rounded=0;orthogonalLoop=1;jettySize=auto;html=1;exitX=1;exitY=0.5;exitDx=0;exitDy=0;entryX=0.5;entryY=1;entryDx=0;entryDy=0;fontSize=12;startSize=8;endSize=8;" parent="1" source="cDj7tId7pjKgxeBCBrE4-91" target="cDj7tId7pjKgxeBCBrE4-98" edge="1">
          <mxGeometry relative="1" as="geometry">
            <Array as="points">
              <mxPoint x="270" y="210" />
            </Array>
          </mxGeometry>
        </mxCell>
        <mxCell id="cDj7tId7pjKgxeBCBrE4-91" value="Neural" style="rounded=0;whiteSpace=wrap;html=1;fontSize=16;fillColor=#b1ddf0;strokeColor=#10739e;" parent="1" vertex="1">
          <mxGeometry x="-2.5" y="230" width="90" height="30" as="geometry" />
        </mxCell>
        <mxCell id="cDj7tId7pjKgxeBCBrE4-99" value="" style="edgeStyle=none;curved=1;rounded=0;orthogonalLoop=1;jettySize=auto;html=1;fontSize=12;startSize=8;endSize=8;" parent="1" source="cDj7tId7pjKgxeBCBrE4-98" target="cDj7tId7pjKgxeBCBrE4-87" edge="1">
          <mxGeometry relative="1" as="geometry" />
        </mxCell>
        <mxCell id="cDj7tId7pjKgxeBCBrE4-98" value="" style="ellipse;whiteSpace=wrap;html=1;aspect=fixed;fontSize=16;" parent="1" vertex="1">
          <mxGeometry x="255" y="80" width="30" height="30" as="geometry" />
        </mxCell>
        <mxCell id="cDj7tId7pjKgxeBCBrE4-120" value="" style="swimlane;startSize=0;fontSize=16;" parent="1" vertex="1">
          <mxGeometry x="-40" y="-5" width="170" height="200" as="geometry" />
        </mxCell>
        <mxCell id="cDj7tId7pjKgxeBCBrE4-121" value="&lt;b&gt;Corpus-based&lt;/b&gt;" style="text;html=1;align=center;verticalAlign=middle;resizable=0;points=[];autosize=1;strokeColor=none;fillColor=none;fontSize=16;" parent="cDj7tId7pjKgxeBCBrE4-120" vertex="1">
          <mxGeometry x="20" y="160" width="130" height="30" as="geometry" />
        </mxCell>
        <mxCell id="cDj7tId7pjKgxeBCBrE4-95" value="Example-based" style="rounded=0;whiteSpace=wrap;html=1;fontSize=16;fillColor=#bac8d3;strokeColor=#23445d;" parent="cDj7tId7pjKgxeBCBrE4-120" vertex="1">
          <mxGeometry x="25" y="15" width="120" height="40" as="geometry" />
        </mxCell>
        <mxCell id="cDj7tId7pjKgxeBCBrE4-96" value="Statistical" style="rounded=0;whiteSpace=wrap;html=1;fontSize=16;fillColor=#bac8d3;strokeColor=#23445d;" parent="cDj7tId7pjKgxeBCBrE4-120" vertex="1">
          <mxGeometry x="27.5" y="75" width="115" height="30" as="geometry" />
        </mxCell>
        <mxCell id="cDj7tId7pjKgxeBCBrE4-97" value="Hybrid" style="rounded=0;whiteSpace=wrap;html=1;fontSize=16;fillColor=#bac8d3;strokeColor=#23445d;" parent="cDj7tId7pjKgxeBCBrE4-120" vertex="1">
          <mxGeometry x="40" y="120" width="90" height="30" as="geometry" />
        </mxCell>
        <mxCell id="cDj7tId7pjKgxeBCBrE4-127" style="edgeStyle=none;curved=1;rounded=0;orthogonalLoop=1;jettySize=auto;html=1;entryX=0.5;entryY=0;entryDx=0;entryDy=0;fontSize=12;startSize=8;endSize=8;" parent="1" source="cDj7tId7pjKgxeBCBrE4-123" target="cDj7tId7pjKgxeBCBrE4-98" edge="1">
          <mxGeometry relative="1" as="geometry">
            <Array as="points">
              <mxPoint x="270" y="-90" />
            </Array>
          </mxGeometry>
        </mxCell>
        <mxCell id="cDj7tId7pjKgxeBCBrE4-123" value="" style="swimlane;startSize=0;fontSize=16;" parent="1" vertex="1">
          <mxGeometry x="-40" y="-250" width="165" height="210" as="geometry" />
        </mxCell>
        <mxCell id="cDj7tId7pjKgxeBCBrE4-124" value="&lt;b&gt;Rule-based&lt;/b&gt;" style="text;html=1;align=center;verticalAlign=middle;resizable=0;points=[];autosize=1;strokeColor=none;fillColor=none;fontSize=16;" parent="cDj7tId7pjKgxeBCBrE4-123" vertex="1">
          <mxGeometry x="30" y="170" width="110" height="30" as="geometry" />
        </mxCell>
        <mxCell id="cDj7tId7pjKgxeBCBrE4-92" value="Direct-based" style="rounded=0;whiteSpace=wrap;html=1;fontSize=16;fillColor=#b0e3e6;strokeColor=#0e8088;" parent="cDj7tId7pjKgxeBCBrE4-123" vertex="1">
          <mxGeometry x="30" y="20" width="110" height="30" as="geometry" />
        </mxCell>
        <mxCell id="cDj7tId7pjKgxeBCBrE4-93" value="Interlingua-based" style="rounded=0;whiteSpace=wrap;html=1;fontSize=16;fillColor=#b0e3e6;strokeColor=#0e8088;" parent="cDj7tId7pjKgxeBCBrE4-123" vertex="1">
          <mxGeometry x="30" y="60" width="110" height="40" as="geometry" />
        </mxCell>
        <mxCell id="cDj7tId7pjKgxeBCBrE4-94" value="Transfer-based" style="rounded=0;whiteSpace=wrap;html=1;fontSize=16;fillColor=#b0e3e6;strokeColor=#0e8088;" parent="cDj7tId7pjKgxeBCBrE4-123" vertex="1">
          <mxGeometry x="30" y="110" width="110" height="35" as="geometry" />
        </mxCell>
        <mxCell id="cDj7tId7pjKgxeBCBrE4-129" value="" style="edgeStyle=none;curved=1;rounded=0;orthogonalLoop=1;jettySize=auto;html=1;fontSize=12;startSize=8;endSize=8;" parent="1" source="cDj7tId7pjKgxeBCBrE4-128" target="cDj7tId7pjKgxeBCBrE4-2" edge="1">
          <mxGeometry relative="1" as="geometry" />
        </mxCell>
        <mxCell id="cDj7tId7pjKgxeBCBrE4-128" value="Machine Translation Evaluation" style="rounded=0;whiteSpace=wrap;html=1;fontSize=16;fillColor=#f8cecc;strokeColor=#b85450;" parent="1" vertex="1">
          <mxGeometry x="870" y="65" width="150" height="60" as="geometry" />
        </mxCell>
        <mxCell id="cDj7tId7pjKgxeBCBrE4-131" style="edgeStyle=none;curved=1;rounded=0;orthogonalLoop=1;jettySize=auto;html=1;exitX=0;exitY=0.5;exitDx=0;exitDy=0;entryX=0.998;entryY=0.542;entryDx=0;entryDy=0;entryPerimeter=0;fontSize=12;startSize=8;endSize=8;" parent="1" source="cDj7tId7pjKgxeBCBrE4-130" target="cDj7tId7pjKgxeBCBrE4-51" edge="1">
          <mxGeometry relative="1" as="geometry" />
        </mxCell>
        <mxCell id="cDj7tId7pjKgxeBCBrE4-130" value="Human Spoken Languages" style="rounded=0;whiteSpace=wrap;html=1;fontSize=16;fillColor=#f8cecc;strokeColor=#b85450;" parent="1" vertex="1">
          <mxGeometry x="810" y="1050" width="130" height="60" as="geometry" />
        </mxCell>
        <mxCell id="cDj7tId7pjKgxeBCBrE4-133" value="" style="edgeStyle=none;curved=1;rounded=0;orthogonalLoop=1;jettySize=auto;html=1;fontSize=12;startSize=8;endSize=8;" parent="1" source="cDj7tId7pjKgxeBCBrE4-132" target="cDj7tId7pjKgxeBCBrE4-2" edge="1">
          <mxGeometry relative="1" as="geometry" />
        </mxCell>
        <mxCell id="cDj7tId7pjKgxeBCBrE4-132" value="Bias" style="rounded=0;whiteSpace=wrap;html=1;fontSize=16;fillColor=#f8cecc;strokeColor=#b85450;" parent="1" vertex="1">
          <mxGeometry x="585" y="-130" width="120" height="60" as="geometry" />
        </mxCell>
        <mxCell id="wY10sdYn39SdXcRigX0j-10" value="" style="edgeStyle=orthogonalEdgeStyle;rounded=0;orthogonalLoop=1;jettySize=auto;html=1;" parent="1" source="wY10sdYn39SdXcRigX0j-11" edge="1">
          <mxGeometry relative="1" as="geometry">
            <mxPoint x="1020" y="95" as="targetPoint" />
          </mxGeometry>
        </mxCell>
        <mxCell id="wY10sdYn39SdXcRigX0j-11" value="" style="ellipse;whiteSpace=wrap;html=1;aspect=fixed;fontSize=16;" parent="1" vertex="1">
          <mxGeometry x="1080" y="80" width="30" height="30" as="geometry" />
        </mxCell>
        <mxCell id="wY10sdYn39SdXcRigX0j-12" value="Using Humen Raters" style="rounded=0;whiteSpace=wrap;html=1;fontSize=16;fillColor=#b0e3e6;strokeColor=#0e8088;" parent="1" vertex="1">
          <mxGeometry x="1200" y="-80" width="110" height="40" as="geometry" />
        </mxCell>
        <mxCell id="wY10sdYn39SdXcRigX0j-13" value="Automatic Evaluation" style="rounded=0;whiteSpace=wrap;html=1;fontSize=16;fillColor=#b0e3e6;strokeColor=#0e8088;" parent="1" vertex="1">
          <mxGeometry x="1200" y="210" width="110" height="40" as="geometry" />
        </mxCell>
        <mxCell id="wY10sdYn39SdXcRigX0j-14" value="" style="curved=1;endArrow=classic;html=1;rounded=0;" parent="1" edge="1">
          <mxGeometry width="50" height="50" relative="1" as="geometry">
            <mxPoint x="1190" y="-60" as="sourcePoint" />
            <mxPoint x="1100" y="80" as="targetPoint" />
            <Array as="points">
              <mxPoint x="1130" y="-40" />
              <mxPoint x="1090" y="20" />
            </Array>
          </mxGeometry>
        </mxCell>
        <mxCell id="wY10sdYn39SdXcRigX0j-15" value="" style="curved=1;endArrow=classic;html=1;rounded=0;" parent="1" edge="1">
          <mxGeometry width="50" height="50" relative="1" as="geometry">
            <mxPoint x="1190" y="230" as="sourcePoint" />
            <mxPoint x="1100" y="110" as="targetPoint" />
            <Array as="points">
              <mxPoint x="1090" y="250" />
            </Array>
          </mxGeometry>
        </mxCell>
        <mxCell id="wY10sdYn39SdXcRigX0j-16" value="" style="edgeStyle=orthogonalEdgeStyle;rounded=0;orthogonalLoop=1;jettySize=auto;html=1;" parent="1" source="wY10sdYn39SdXcRigX0j-17" target="wY10sdYn39SdXcRigX0j-12" edge="1">
          <mxGeometry relative="1" as="geometry" />
        </mxCell>
        <mxCell id="wY10sdYn39SdXcRigX0j-17" value="" style="swimlane;startSize=0;fontSize=16;" parent="1" vertex="1">
          <mxGeometry x="1380" y="-160" width="170" height="200" as="geometry">
            <mxRectangle x="1560" y="-170" width="50" height="40" as="alternateBounds" />
          </mxGeometry>
        </mxCell>
        <mxCell id="wY10sdYn39SdXcRigX0j-18" value="Adequency &amp;amp; Fluency" style="rounded=0;whiteSpace=wrap;html=1;fontSize=16;fillColor=#dae8fc;strokeColor=#6c8ebf;" parent="wY10sdYn39SdXcRigX0j-17" vertex="1">
          <mxGeometry x="25" y="15" width="120" height="40" as="geometry" />
        </mxCell>
        <mxCell id="wY10sdYn39SdXcRigX0j-19" value="Ranking" style="rounded=0;whiteSpace=wrap;html=1;fontSize=16;fillColor=#dae8fc;strokeColor=#6c8ebf;" parent="wY10sdYn39SdXcRigX0j-17" vertex="1">
          <mxGeometry x="30" y="100" width="115" height="30" as="geometry" />
        </mxCell>
        <mxCell id="wY10sdYn39SdXcRigX0j-20" value="Popst-edit" style="rounded=0;whiteSpace=wrap;html=1;fontSize=16;fillColor=#dae8fc;strokeColor=#6c8ebf;" parent="wY10sdYn39SdXcRigX0j-17" vertex="1">
          <mxGeometry x="40" y="160" width="90" height="30" as="geometry" />
        </mxCell>
        <mxCell id="wY10sdYn39SdXcRigX0j-21" value="Character or word overlap Method" style="rounded=0;whiteSpace=wrap;html=1;fontSize=16;fillColor=#e1d5e7;strokeColor=#9673a6;" parent="1" vertex="1">
          <mxGeometry x="1440" y="150" width="120" height="60" as="geometry" />
        </mxCell>
        <mxCell id="wY10sdYn39SdXcRigX0j-22" value="Embedding based Method" style="rounded=0;whiteSpace=wrap;html=1;fontSize=16;fillColor=#e1d5e7;strokeColor=#9673a6;" parent="1" vertex="1">
          <mxGeometry x="1440" y="387.5" width="120" height="60" as="geometry" />
        </mxCell>
        <mxCell id="wY10sdYn39SdXcRigX0j-23" value="" style="edgeStyle=orthogonalEdgeStyle;rounded=0;orthogonalLoop=1;jettySize=auto;html=1;" parent="1" source="wY10sdYn39SdXcRigX0j-24" target="wY10sdYn39SdXcRigX0j-13" edge="1">
          <mxGeometry relative="1" as="geometry" />
        </mxCell>
        <mxCell id="wY10sdYn39SdXcRigX0j-24" value="" style="ellipse;whiteSpace=wrap;html=1;aspect=fixed;fontSize=16;" parent="1" vertex="1">
          <mxGeometry x="1360" y="215" width="30" height="30" as="geometry" />
        </mxCell>
        <mxCell id="wY10sdYn39SdXcRigX0j-25" style="edgeStyle=orthogonalEdgeStyle;rounded=0;orthogonalLoop=1;jettySize=auto;html=1;" parent="1" source="wY10sdYn39SdXcRigX0j-26" edge="1">
          <mxGeometry relative="1" as="geometry">
            <mxPoint x="1570" y="180" as="targetPoint" />
          </mxGeometry>
        </mxCell>
        <mxCell id="wY10sdYn39SdXcRigX0j-26" value="" style="swimlane;startSize=0;fontSize=16;" parent="1" vertex="1">
          <mxGeometry x="1630" y="100" width="150" height="160" as="geometry">
            <mxRectangle x="1560" y="-170" width="50" height="40" as="alternateBounds" />
          </mxGeometry>
        </mxCell>
        <mxCell id="wY10sdYn39SdXcRigX0j-27" value="chrF" style="rounded=0;whiteSpace=wrap;html=1;fontSize=16;fillColor=#f8cecc;strokeColor=#b85450;" parent="wY10sdYn39SdXcRigX0j-26" vertex="1">
          <mxGeometry x="15" y="20" width="120" height="40" as="geometry" />
        </mxCell>
        <mxCell id="wY10sdYn39SdXcRigX0j-28" value="BLEU" style="rounded=0;whiteSpace=wrap;html=1;fontSize=16;fillColor=#f8cecc;strokeColor=#b85450;" parent="wY10sdYn39SdXcRigX0j-26" vertex="1">
          <mxGeometry x="20" y="100" width="115" height="30" as="geometry" />
        </mxCell>
        <mxCell id="wY10sdYn39SdXcRigX0j-29" style="edgeStyle=orthogonalEdgeStyle;rounded=0;orthogonalLoop=1;jettySize=auto;html=1;" parent="1" source="wY10sdYn39SdXcRigX0j-30" edge="1">
          <mxGeometry relative="1" as="geometry">
            <mxPoint x="1570" y="417.5" as="targetPoint" />
          </mxGeometry>
        </mxCell>
        <mxCell id="wY10sdYn39SdXcRigX0j-30" value="" style="swimlane;startSize=0;fontSize=16;fillColor=#e1d5e7;strokeColor=#9673a6;" parent="1" vertex="1">
          <mxGeometry x="1630" y="325" width="150" height="185" as="geometry">
            <mxRectangle x="1560" y="-170" width="50" height="40" as="alternateBounds" />
          </mxGeometry>
        </mxCell>
        <mxCell id="wY10sdYn39SdXcRigX0j-31" value="METEOR" style="rounded=0;whiteSpace=wrap;html=1;fontSize=16;fillColor=#f8cecc;strokeColor=#b85450;" parent="wY10sdYn39SdXcRigX0j-30" vertex="1">
          <mxGeometry x="15" y="20" width="120" height="40" as="geometry" />
        </mxCell>
        <mxCell id="wY10sdYn39SdXcRigX0j-32" value="BERTSCORE&amp;nbsp;" style="rounded=0;whiteSpace=wrap;html=1;fontSize=16;fillColor=#f8cecc;strokeColor=#b85450;" parent="wY10sdYn39SdXcRigX0j-30" vertex="1">
          <mxGeometry x="17.5" y="145" width="115" height="30" as="geometry" />
        </mxCell>
        <mxCell id="wY10sdYn39SdXcRigX0j-33" value="COMET &amp;amp; BLEURT" style="rounded=0;whiteSpace=wrap;html=1;fontSize=16;fillColor=#f8cecc;strokeColor=#b85450;" parent="wY10sdYn39SdXcRigX0j-30" vertex="1">
          <mxGeometry x="15" y="85" width="115" height="45" as="geometry" />
        </mxCell>
        <mxCell id="wY10sdYn39SdXcRigX0j-34" value="" style="curved=1;endArrow=classic;html=1;rounded=0;" parent="1" edge="1">
          <mxGeometry width="50" height="50" relative="1" as="geometry">
            <mxPoint x="1430" y="420" as="sourcePoint" />
            <mxPoint x="1370" y="250" as="targetPoint" />
            <Array as="points">
              <mxPoint x="1370" y="380" />
            </Array>
          </mxGeometry>
        </mxCell>
        <mxCell id="wY10sdYn39SdXcRigX0j-35" value="" style="curved=1;endArrow=classic;html=1;rounded=0;" parent="1" edge="1">
          <mxGeometry width="50" height="50" relative="1" as="geometry">
            <mxPoint x="1435" y="175" as="sourcePoint" />
            <mxPoint x="1380" y="210" as="targetPoint" />
            <Array as="points">
              <mxPoint x="1380" y="140" />
            </Array>
          </mxGeometry>
        </mxCell>
        <mxCell id="wY10sdYn39SdXcRigX0j-44" value="" style="edgeStyle=orthogonalEdgeStyle;rounded=0;orthogonalLoop=1;jettySize=auto;html=1;" parent="1" source="wY10sdYn39SdXcRigX0j-37" edge="1">
          <mxGeometry relative="1" as="geometry">
            <mxPoint x="1060" y="1080" as="targetPoint" />
          </mxGeometry>
        </mxCell>
        <mxCell id="wY10sdYn39SdXcRigX0j-37" value="" style="swimlane;startSize=0;fontSize=16;" parent="1" vertex="1">
          <mxGeometry x="1100" y="975" width="165" height="210" as="geometry" />
        </mxCell>
        <mxCell id="wY10sdYn39SdXcRigX0j-39" value="&lt;font style=&quot;font-size: 12px;&quot;&gt;Word order typology&lt;/font&gt;" style="rounded=0;whiteSpace=wrap;html=1;fontSize=16;fillColor=#d5e8d4;strokeColor=#82b366;" parent="wY10sdYn39SdXcRigX0j-37" vertex="1">
          <mxGeometry x="30" y="20" width="110" height="30" as="geometry" />
        </mxCell>
        <mxCell id="wY10sdYn39SdXcRigX0j-40" value="&lt;font style=&quot;font-size: 12px;&quot;&gt;Lexical Divergences&lt;/font&gt;" style="rounded=0;whiteSpace=wrap;html=1;fontSize=16;fillColor=#d5e8d4;strokeColor=#82b366;" parent="wY10sdYn39SdXcRigX0j-37" vertex="1">
          <mxGeometry x="30" y="60" width="110" height="40" as="geometry" />
        </mxCell>
        <mxCell id="wY10sdYn39SdXcRigX0j-41" value="&lt;font style=&quot;font-size: 12px;&quot;&gt;Morphological typology&lt;/font&gt;" style="rounded=0;whiteSpace=wrap;html=1;fontSize=16;fillColor=#d5e8d4;strokeColor=#82b366;" parent="wY10sdYn39SdXcRigX0j-37" vertex="1">
          <mxGeometry x="30" y="110" width="110" height="35" as="geometry" />
        </mxCell>
        <mxCell id="wY10sdYn39SdXcRigX0j-42" value="&lt;p style=&quot;line-height: 120%; font-size: 12px;&quot;&gt;Referential density&lt;/p&gt;" style="rounded=0;whiteSpace=wrap;html=1;fontSize=16;fillColor=#d5e8d4;strokeColor=#82b366;" parent="wY10sdYn39SdXcRigX0j-37" vertex="1">
          <mxGeometry x="30" y="154" width="110" height="35" as="geometry" />
        </mxCell>
        <mxCell id="wY10sdYn39SdXcRigX0j-46" value="" style="edgeStyle=orthogonalEdgeStyle;rounded=0;orthogonalLoop=1;jettySize=auto;html=1;" parent="1" source="wY10sdYn39SdXcRigX0j-45" target="cDj7tId7pjKgxeBCBrE4-130" edge="1">
          <mxGeometry relative="1" as="geometry" />
        </mxCell>
        <mxCell id="wY10sdYn39SdXcRigX0j-45" value="Language Divergences &amp;amp; Typology" style="whiteSpace=wrap;html=1;aspect=fixed;fillColor=#d0cee2;strokeColor=#56517e;" parent="1" vertex="1">
          <mxGeometry x="980" y="1040" width="80" height="80" as="geometry" />
        </mxCell>
        <mxCell id="vPegP5DZo5M9SbKQAiiK-1" value="sov" style="ellipse;whiteSpace=wrap;html=1;fillColor=#b0e3e6;strokeColor=#0e8088;" vertex="1" parent="1">
          <mxGeometry x="1330" y="940" width="70" height="40" as="geometry" />
        </mxCell>
        <mxCell id="vPegP5DZo5M9SbKQAiiK-2" value="svo" style="ellipse;whiteSpace=wrap;html=1;fillColor=#b0e3e6;strokeColor=#0e8088;" vertex="1" parent="1">
          <mxGeometry x="1340" y="1010" width="70" height="40" as="geometry" />
        </mxCell>
        <mxCell id="vPegP5DZo5M9SbKQAiiK-5" style="edgeStyle=orthogonalEdgeStyle;rounded=0;orthogonalLoop=1;jettySize=auto;html=1;exitX=1;exitY=1;exitDx=0;exitDy=0;entryX=0;entryY=0.5;entryDx=0;entryDy=0;" edge="1" parent="1" source="vPegP5DZo5M9SbKQAiiK-3" target="vPegP5DZo5M9SbKQAiiK-2">
          <mxGeometry relative="1" as="geometry">
            <Array as="points">
              <mxPoint x="1300" y="1007" />
              <mxPoint x="1300" y="1030" />
            </Array>
          </mxGeometry>
        </mxCell>
        <mxCell id="vPegP5DZo5M9SbKQAiiK-6" style="edgeStyle=orthogonalEdgeStyle;rounded=0;orthogonalLoop=1;jettySize=auto;html=1;exitX=0.5;exitY=0;exitDx=0;exitDy=0;entryX=0;entryY=0.5;entryDx=0;entryDy=0;" edge="1" parent="1" source="vPegP5DZo5M9SbKQAiiK-3" target="vPegP5DZo5M9SbKQAiiK-1">
          <mxGeometry relative="1" as="geometry" />
        </mxCell>
        <mxCell id="vPegP5DZo5M9SbKQAiiK-3" value="" style="ellipse;whiteSpace=wrap;html=1;aspect=fixed;" vertex="1" parent="1">
          <mxGeometry x="1290" y="992.5" width="17.5" height="17.5" as="geometry" />
        </mxCell>
        <mxCell id="vPegP5DZo5M9SbKQAiiK-4" style="edgeStyle=orthogonalEdgeStyle;rounded=0;orthogonalLoop=1;jettySize=auto;html=1;exitX=1;exitY=0.25;exitDx=0;exitDy=0;" edge="1" parent="1" source="wY10sdYn39SdXcRigX0j-39" target="vPegP5DZo5M9SbKQAiiK-3">
          <mxGeometry relative="1" as="geometry" />
        </mxCell>
        <mxCell id="vPegP5DZo5M9SbKQAiiK-12" style="edgeStyle=orthogonalEdgeStyle;rounded=0;orthogonalLoop=1;jettySize=auto;html=1;exitX=0.5;exitY=1;exitDx=0;exitDy=0;entryX=0;entryY=0.5;entryDx=0;entryDy=0;" edge="1" parent="1" source="vPegP5DZo5M9SbKQAiiK-7" target="vPegP5DZo5M9SbKQAiiK-10">
          <mxGeometry relative="1" as="geometry" />
        </mxCell>
        <mxCell id="vPegP5DZo5M9SbKQAiiK-13" style="edgeStyle=orthogonalEdgeStyle;rounded=0;orthogonalLoop=1;jettySize=auto;html=1;exitX=0.5;exitY=0;exitDx=0;exitDy=0;entryX=0;entryY=0.5;entryDx=0;entryDy=0;" edge="1" parent="1" source="vPegP5DZo5M9SbKQAiiK-7" target="vPegP5DZo5M9SbKQAiiK-9">
          <mxGeometry relative="1" as="geometry">
            <Array as="points">
              <mxPoint x="1375" y="1060" />
              <mxPoint x="1470" y="1060" />
            </Array>
          </mxGeometry>
        </mxCell>
        <mxCell id="vPegP5DZo5M9SbKQAiiK-7" value="" style="ellipse;whiteSpace=wrap;html=1;aspect=fixed;" vertex="1" parent="1">
          <mxGeometry x="1360" y="1091.25" width="22.5" height="22.5" as="geometry" />
        </mxCell>
        <mxCell id="vPegP5DZo5M9SbKQAiiK-8" style="edgeStyle=orthogonalEdgeStyle;rounded=0;orthogonalLoop=1;jettySize=auto;html=1;exitX=1;exitY=0.5;exitDx=0;exitDy=0;" edge="1" parent="1" source="wY10sdYn39SdXcRigX0j-41" target="vPegP5DZo5M9SbKQAiiK-7">
          <mxGeometry relative="1" as="geometry" />
        </mxCell>
        <mxCell id="vPegP5DZo5M9SbKQAiiK-9" value="one polysynthetic morpheme" style="rounded=0;whiteSpace=wrap;html=1;fillColor=#f9f7ed;strokeColor=#36393d;" vertex="1" parent="1">
          <mxGeometry x="1480" y="1030" width="90" height="42.5" as="geometry" />
        </mxCell>
        <mxCell id="vPegP5DZo5M9SbKQAiiK-10" value="many polysynthetic morpheme" style="rounded=0;whiteSpace=wrap;html=1;fillColor=#f9f7ed;strokeColor=#36393d;" vertex="1" parent="1">
          <mxGeometry x="1480" y="1110" width="90" height="40" as="geometry" />
        </mxCell>
        <mxCell id="vPegP5DZo5M9SbKQAiiK-20" style="edgeStyle=orthogonalEdgeStyle;rounded=0;orthogonalLoop=1;jettySize=auto;html=1;exitX=1;exitY=0.5;exitDx=0;exitDy=0;entryX=0;entryY=0.5;entryDx=0;entryDy=0;" edge="1" parent="1" source="vPegP5DZo5M9SbKQAiiK-14" target="vPegP5DZo5M9SbKQAiiK-17">
          <mxGeometry relative="1" as="geometry" />
        </mxCell>
        <mxCell id="vPegP5DZo5M9SbKQAiiK-21" style="edgeStyle=orthogonalEdgeStyle;rounded=0;orthogonalLoop=1;jettySize=auto;html=1;exitX=0.5;exitY=1;exitDx=0;exitDy=0;entryX=0.445;entryY=0.033;entryDx=0;entryDy=0;entryPerimeter=0;" edge="1" parent="1" source="vPegP5DZo5M9SbKQAiiK-14" target="vPegP5DZo5M9SbKQAiiK-16">
          <mxGeometry relative="1" as="geometry" />
        </mxCell>
        <mxCell id="vPegP5DZo5M9SbKQAiiK-14" value="" style="ellipse;whiteSpace=wrap;html=1;aspect=fixed;" vertex="1" parent="1">
          <mxGeometry x="1340" y="1169" width="21" height="21" as="geometry" />
        </mxCell>
        <mxCell id="vPegP5DZo5M9SbKQAiiK-15" style="edgeStyle=orthogonalEdgeStyle;rounded=0;orthogonalLoop=1;jettySize=auto;html=1;exitX=1;exitY=0.25;exitDx=0;exitDy=0;" edge="1" parent="1" source="wY10sdYn39SdXcRigX0j-42" target="vPegP5DZo5M9SbKQAiiK-14">
          <mxGeometry relative="1" as="geometry" />
        </mxCell>
        <mxCell id="vPegP5DZo5M9SbKQAiiK-16" value="Non-pro-drop" style="ellipse;whiteSpace=wrap;html=1;fillColor=#d0cee2;strokeColor=#56517e;" vertex="1" parent="1">
          <mxGeometry x="1307.5" y="1250" width="110" height="60" as="geometry" />
        </mxCell>
        <mxCell id="vPegP5DZo5M9SbKQAiiK-17" value="Pro-Drop" style="ellipse;whiteSpace=wrap;html=1;fillColor=#d0cee2;strokeColor=#56517e;" vertex="1" parent="1">
          <mxGeometry x="1475" y="1190" width="100" height="60" as="geometry" />
        </mxCell>
        <mxCell id="vPegP5DZo5M9SbKQAiiK-18" style="edgeStyle=orthogonalEdgeStyle;rounded=0;orthogonalLoop=1;jettySize=auto;html=1;exitX=0.5;exitY=1;exitDx=0;exitDy=0;" edge="1" parent="1" source="vPegP5DZo5M9SbKQAiiK-17" target="vPegP5DZo5M9SbKQAiiK-17">
          <mxGeometry relative="1" as="geometry" />
        </mxCell>
        <mxCell id="vPegP5DZo5M9SbKQAiiK-19" style="edgeStyle=orthogonalEdgeStyle;rounded=0;orthogonalLoop=1;jettySize=auto;html=1;exitX=0.5;exitY=1;exitDx=0;exitDy=0;" edge="1" parent="1" source="vPegP5DZo5M9SbKQAiiK-16" target="vPegP5DZo5M9SbKQAiiK-16">
          <mxGeometry relative="1" as="geometry" />
        </mxCell>
      </root>
    </mxGraphModel>
  </diagram>
</mxfile>
